<svg xmlns="http://www.w3.org/2000/svg" viewBox="0 0 100 100" width="1024" height="1024">
  <defs>
    <linearGradient id="capsuleGrad" x1="0%" y1="0%" x2="0%" y2="100%">
      <stop offset="0%" style="stop-color:#C4B5FD"/>
      <stop offset="100%" style="stop-color:#8B5CF6"/>
    </linearGradient>
    <linearGradient id="stemGrad" x1="0%" y1="0%" x2="0%" y2="100%">
      <stop offset="0%" style="stop-color:#B4A4F8"/>
      <stop offset="100%" style="stop-color:#7C3AED"/>
    </linearGradient>
    <filter id="shadow" x="-20%" y="-10%" width="140%" height="140%">
      <feDropShadow dx="0" dy="3" stdDeviation="4" flood-color="rgba(0,0,0,0.6)"/>
    </filter>
    <clipPath id="capsuleClip">
      <rect x="30" y="2" width="40" height="50" rx="20"/>
    </clipPath>
  </defs>
  <!-- Dark: Near-black navy -->
  <rect width="100" height="100" fill="#0F0D2E"/>
  <g transform="translate(50, 46) scale(0.62) translate(-50, -50)" filter="url(#shadow)">
    <rect x="30" y="2" width="40" height="50" rx="20" fill="url(#capsuleGrad)"/>
    <g clip-path="url(#capsuleClip)">
      <ellipse cx="50" cy="5" rx="22" ry="16" fill="rgba(255,255,255,0.3)"/>
    </g>
    <line x1="39" y1="15" x2="61" y2="15" stroke="#0F0D2E" stroke-width="2.5" opacity=".3" stroke-linecap="round"/>
    <line x1="39" y1="23" x2="61" y2="23" stroke="#0F0D2E" stroke-width="2.5" opacity=".4" stroke-linecap="round"/>
    <line x1="39" y1="31" x2="61" y2="31" stroke="#0F0D2E" stroke-width="2.5" opacity=".3" stroke-linecap="round"/>
    <path d="M26 40 Q26 62, 50 62 Q74 62, 74 40" fill="none" stroke="url(#stemGrad)" stroke-width="5.5" stroke-linecap="round"/>
    <rect x="46" y="62" width="8" height="28" rx="2" fill="url(#stemGrad)"/>
    <polygon points="44,90 56,90 50,112" fill="url(#stemGrad)"/>
    <line x1="50" y1="94" x2="50" y2="108" stroke="#0F0D2E" stroke-width="1.4" opacity=".3"/>
    <path d="M20 16 Q14 26, 20 36" fill="none" stroke="#818CF8" stroke-width="3" stroke-linecap="round" opacity=".7"/>
    <path d="M80 16 Q86 26, 80 36" fill="none" stroke="#818CF8" stroke-width="3" stroke-linecap="round" opacity=".7"/>
    <path d="M12 10 Q3 26, 12 42" fill="none" stroke="#818CF8" stroke-width="2" stroke-linecap="round" opacity=".35"/>
    <path d="M88 10 Q97 26, 88 42" fill="none" stroke="#818CF8" stroke-width="2" stroke-linecap="round" opacity=".35"/>
  </g>
</svg>
