<svg xmlns="http://www.w3.org/2000/svg" viewBox="0 0 100 100" width="1024" height="1024">
  <defs>
    <linearGradient id="depth" x1="0%" y1="0%" x2="0%" y2="100%">
      <stop offset="0%" style="stop-color:rgb(220,220,220)"/>
      <stop offset="100%" style="stop-color:rgb(150,150,150)"/>
    </linearGradient>
    <linearGradient id="depthStem" x1="0%" y1="0%" x2="0%" y2="100%">
      <stop offset="0%" style="stop-color:rgb(180,180,180)"/>
      <stop offset="100%" style="stop-color:rgb(120,120,120)"/>
    </linearGradient>
  </defs>
  <!-- Tinted: Black bg, grayscale with depth gradients (Apple HIG compliant) -->
  <rect width="100" height="100" fill="#000000"/>
  <g transform="translate(50, 46) scale(0.62) translate(-50, -50)">
    <rect x="30" y="2" width="40" height="50" rx="20" fill="url(#depth)"/>
    <line x1="39" y1="15" x2="61" y2="15" stroke="#000" stroke-width="2.5" opacity=".2" stroke-linecap="round"/>
    <line x1="39" y1="23" x2="61" y2="23" stroke="#000" stroke-width="2.5" opacity=".28" stroke-linecap="round"/>
    <line x1="39" y1="31" x2="61" y2="31" stroke="#000" stroke-width="2.5" opacity=".2" stroke-linecap="round"/>
    <path d="M26 40 Q26 62, 50 62 Q74 62, 74 40" fill="none" stroke="url(#depthStem)" stroke-width="5.5" stroke-linecap="round"/>
    <rect x="46" y="62" width="8" height="28" rx="2" fill="url(#depthStem)"/>
    <polygon points="44,90 56,90 50,112" fill="rgb(140,140,140)"/>
    <line x1="50" y1="94" x2="50" y2="108" stroke="#000" stroke-width="1.4" opacity=".25"/>
    <path d="M20 16 Q14 26, 20 36" fill="none" stroke="rgb(110,110,110)" stroke-width="3" stroke-linecap="round"/>
    <path d="M12 10 Q3 26, 12 42" fill="none" stroke="rgb(70,70,70)" stroke-width="2" stroke-linecap="round"/>
    <path d="M80 16 Q86 26, 80 36" fill="none" stroke="rgb(110,110,110)" stroke-width="3" stroke-linecap="round"/>
    <path d="M88 10 Q97 26, 88 42" fill="none" stroke="rgb(70,70,70)" stroke-width="2" stroke-linecap="round"/>
  </g>
</svg>
