<svg enable-background="new 0 0 311.3 308.3" height="309" viewBox="0 0 311.3 308.3" width="312" xmlns="http://www.w3.org/2000/svg"><path d="m238.6 228.9c3.7-13.4-11.4-22-21.8-18.6 91.2-120.4-68.5-287.1-184.3-171.1-97.4 106.8 43.6 282 167.5 190.4 4.2 12.1 11.6 18.9 25.1 14.4-11.6 19.7 76.5 99.8 86.2 45.8-3.5-19.2-54.2-63.5-72.7-60.9z" fill="#fff"/><path d="m311.3 289.9c-9.7 54-97.8-26.1-86.2-45.8-13.6 4.5-20.9-2.3-25.1-14.4-123.9 91.5-264.9-83.7-167.5-190.5 115.8-116 275.5 50.7 184.3 171.1 10.4-3.4 25.5 5.2 21.8 18.6 18.5-2.6 69.2 41.7 72.7 61zm-75.1-165.2c-24.9-150.8-231.6-154.7-227.5-2.8 13.3 164.8 241.3 162.1 227.5 2.8zm14.6 152.2c7.6 4.8 61.8 44.9 52.5 13.7-58.1-80.4-102.5-59.5-52.5-13.7zm-34.1-62.9c-17.8 4.5-9.3 26.3 7.9 25.8 14.7-5.9 7.5-23.4-7.9-25.8z"/><path d="m32.5 136.3c-6.3-113.3 157.8-138.7 177.1-25.5 13.7 123.2-159.1 153.7-177.1 25.5zm46.5 61.6c110.9 57.9 168.4-86.6 74.6-143.3-99.1-49.8-153.9 86.8-74.6 143.3z"/><path d="m119.1 185.6c-.9-34.4-7.7-70.8-4.5-106.4 14.2-13.1 6.7 26.3 8.8 35.2-1.9 15.2 6.2 65-4.3 71.2z"/><path d="m148.6 101.4c-3.6 17.9 3.5 35.9-5.3 43.6-5.9-3.2-11.9-47.5 5.3-43.6z"/><path d="m99.9 104.8c-2.7 16.9-.5 33.4-2.7 52.2-5.8 17.7-12.2-56.8 2.7-52.2z"/></svg>