<svg height="479.591" viewBox="0 0 928.266 479.591" width="928.266" xmlns="http://www.w3.org/2000/svg"><g fill="#fff"><path d="m608.667 171.296c141.399 14.582 139.969-18.739 133.54 25.945-7.973 80.994-16.606 159.371.697 240.455-84.014 11.77-169.67 14.356-255.662 18.475-39.502.216-112.933 14.745-109.98 1.887 5.038-127.28 5.699-255.349 10.491-384.171 128.893 114.623 113.357 93.619 220.913 97.409z"/><path d="m157.421 119.693c25.028 2.716 51.826 21.47 75.073 15.381 48.097-24.68 95.782-38.433 144.93-62.207.989 65.558-7.397 131.91-11.266 198.874-2.459 64.741-.323 126.42-6.122 191.76-271.918-102.528-211.805-86.737-215.14-136.042 3.479-71.186 5.324-136.296 12.525-207.765z"/><path d="m398.425 62.467c498.558 16.979 258.585-27.797 480.469 91.447-122.709-2.267-245.825 3.172-369.65-1.392-40.473-26.26-77.514-55.049-110.819-90.055z"/><path d="m366.272 65.51c-33.202 16.871-70.451 27.008-106.473 41.901-16.644 4.281-28.102 18.451-46.217 15.132-64.629-19.124-126.17-29.663-190.237-50.377 31.937-13.767 66.098-31.946 99.395-44.547 78.731 19.963 164.612 21.527 243.532 37.891z"/><path d="m670.189 53.52c-92.408-3.662-186.293 4.16-280.637.268-74.048-8.986-149.107-16.491-222.963-28.944 84.888-4.389 171.736-10.267 257.805-14.895 82.127 16.357 166.826 25.359 245.795 43.57z"/></g><path d="m927.67 155.993c-6.862 21.912-51.078 9.471-67.834 11.978-23.212.056-47.117 1.869-71.882 2.662-8.42.084-8.647-3.075-18.388.351-5.154 2.195-11.512-3.077-14.118 4.155-22.854 340.153 37.827 265.629-42.856 286.042-120.078 15.759-238.638 9.145-356.369 17.905-76.558-25.388-151.441-52.124-219.195-95.1-14.437-9.278-15.118-20.476-12.748-36.727 3.786-79.282 11.762-153.861 18.786-231.281-42.993-14.118-88.834-25.422-133.206-36.795-5.036 2.815-10.339-3.61-9.204-8.123 35.002-21.868 75.847-34.489 114.266-51.94 57.747-4.361 112.588-7.607 170.766-11.211 47.384-3.293 91.729-5.224 139.383-7.405 99.322 21.554 201.425 33.709 303.174 52.452 11.558 3.121 21.295 1.037 32.722 6.877 11.451 17.502 32.356 20.532 50.626 30.738 39.343 23.237 76.44 42.197 116.078 65.423zm-319.003 15.303c-31.27 0-64.858-1.302-97.019-2.934-46.414-24.402-85.385-59.194-123.894-94.475-4.431 122.919-5.638 247.866-9.922 372.291 1.65 6.784-6.222 17.763 5.491 16.629 121.819-8.251 239.008-9.67 359.582-25.11-11.941-50.693-10.425-102.754-8.253-156.32 7.642-147.8 36.347-99.399-61.97-106.693-22.608-3.73-41.083 2.624-64.015-3.388zm-451.246-51.603c-8.273 81.631-9.602 164.592-15.279 247.907 63.761 46.017 144.566 65.428 217.894 95.901 5.676-62.931 3.751-127.065 6.12-191.759 3.861-68.086 12.137-130.244 11.268-198.874-39.717 18.513-82.574 34.819-124.615 51.536-29.908 25.686-62.225.527-95.388-4.71zm241.004-57.226c33.401 33.063 73.81 70.955 117.208 91.372 120.101.813 241.544-.929 363.261.075-44.555-24.103-88.094-51.593-128.472-84.421-118.27-7.26-234.162 1.307-351.997-7.026zm-32.153 3.043c-77.519-16.173-166.611-18.08-245.409-38.151-32.171 14.822-64.778 29.768-97.518 44.807 64.699 20.55 130.552 33.044 196.491 51.779 48.102-20.34 97.473-36.136 146.436-58.436zm303.917-11.99c-77.032-17.964-164.229-27.124-245.795-43.572-87.276 4.125-170.233 10.635-257.805 14.897 293.213 48.683 353.286 22.093 503.6 28.675z"/><path d="m356.161 479.591-.095-.031c-76.525-25.378-150.881-51.751-219.306-95.153-14.145-9.089-15.472-20.094-12.976-37.222 2.993-62.723 8.492-121.221 14.313-183.155 1.466-15.586 2.98-31.699 4.433-47.703-38.08-12.484-78.67-22.843-117.928-32.861-4.907-1.252-9.802-2.501-14.679-3.751-2.093 1.081-4.448.813-6.494-.754-2.564-1.964-3.936-5.339-3.261-8.024l.05-.195.171-.106c23.363-14.596 49.813-25.276 75.393-35.604 12.845-5.187 26.125-10.55 38.932-16.366l.169-.044c49.688-3.752 96.753-6.65 146.581-9.719l24.191-1.492c43.867-3.049 85.136-4.931 128.827-6.924l10.63-.487.064.014c59.271 12.862 120.712 22.563 180.13 31.944 40.316 6.365 82.006 12.947 123.028 20.504 4.543 1.226 8.82 1.649 12.957 2.06 6.625.656 12.883 1.277 19.902 4.864l.118.061.072.111c7.817 11.947 20.055 17.065 33.011 22.482 5.778 2.417 11.753 4.915 17.441 8.093 20.252 11.961 40.261 22.983 59.61 33.643 18.306 10.083 37.233 20.51 56.477 31.785l.343.201-.118.38c-4.99 15.932-29.064 14.149-48.407 12.716-7.725-.572-15.022-1.111-19.83-.394-14.425.041-28.778.735-43.976 1.47-9.104.44-18.52.896-27.965 1.198-3.105.038-5.153-.377-6.93-.738-3.053-.62-5.259-1.066-11.309 1.061-2.036.869-4.209.627-6.308.394-3.346-.376-5.99-.667-7.482 3.395-10.296 153.293-3.731 221.163-.576 253.776 1.488 15.385 2.104 21.753-.522 24.867-1.991 2.361-5.56 2.622-12.038 3.096-6.488.475-16.293 1.192-30.091 4.683-71.18 9.346-142.74 10.854-211.943 12.313-47.442 1-96.499 2.034-144.511 5.607l-.1.007zm-346.372-400.944.193.05c4.939 1.266 9.897 2.531 14.868 3.8 39.403 10.056 80.147 20.453 118.37 33.004l.378.125-.036.396c-1.464 16.136-2.991 32.387-4.469 48.103-5.82 61.922-11.318 120.41-14.315 183.157-2.496 17.142-1.243 27.438 12.52 36.283 68.297 43.321 142.559 69.668 218.987 95.016 48.008-3.569 97.041-4.603 144.464-5.603 69.177-1.458 140.709-2.966 211.776-12.293 13.826-3.501 23.683-4.222 30.206-4.699 6.208-.454 9.627-.704 11.347-2.743 2.355-2.792 1.708-9.478.291-24.126-3.158-32.646-9.729-100.576.579-254.011l.028-.137c1.756-4.87 5.211-4.483 8.558-4.114 1.972.219 4.011.445 5.835-.331 6.343-2.23 8.781-1.734 11.87-1.108 1.728.351 3.674.732 6.71.718 9.426-.302 18.836-.757 27.938-1.197 15.208-.735 29.573-1.43 43.948-1.465 4.843-.729 12.194-.186 19.979.391 18.834 1.396 42.232 3.129 47.255-11.641-19.111-11.19-37.917-21.55-56.105-31.568-19.356-10.663-39.371-21.688-59.626-33.651-5.629-3.145-11.577-5.632-17.329-8.037-13.062-5.462-25.4-10.622-33.388-22.746-6.805-3.448-12.938-4.057-19.429-4.7-4.177-.414-8.497-.843-13.079-2.08-40.971-7.545-82.653-14.126-122.963-20.491-59.411-9.38-120.846-19.08-180.123-31.94l-10.499.479c-43.686 1.993-84.948 3.875-128.807 6.923l-24.196 1.492c-49.795 3.066-96.832 5.963-146.479 9.712-12.801 5.812-26.063 11.166-38.89 16.346-25.474 10.283-51.814 20.918-75.06 35.412-.459 2.252.778 5.137 2.942 6.794 1.041.797 3.151 1.933 5.576.578zm350.684 385.576-.628-.261c-21.681-9.01-44.404-17.192-66.38-25.105-52.438-18.882-106.659-38.407-151.616-70.853l-.225-.162.019-.277c2.169-31.82 3.726-64.069 5.231-95.256 2.427-50.247 4.935-102.205 10.05-152.667l.053-.525.522.082c9.579 1.513 19.172 4.708 28.448 7.799 23.371 7.784 45.445 15.139 66.535-2.974l.142-.086c7.374-2.932 14.773-5.852 22.178-8.772 34.254-13.517 69.674-27.492 102.411-42.752l.701-.327.01.774c.577 45.585-2.81 87.465-6.395 131.804-1.759 21.743-3.577 44.227-4.874 67.105-.853 23.288-1.153 46.854-1.444 69.644-.513 40.24-1.044 81.852-4.677 122.132l-.062.678zm-217.813-96.867c44.8 32.268 98.858 51.732 151.144 70.56 21.775 7.841 44.283 15.946 65.796 24.862 3.575-40.031 4.103-81.381 4.612-121.377.291-22.796.592-46.367 1.445-69.678 1.299-22.9 3.117-45.391 4.876-67.139 3.563-44.063 6.93-85.698 6.401-130.938-32.568 15.146-67.742 29.023-101.766 42.448-7.376 2.911-14.749 5.819-22.097 8.741-21.5 18.412-43.814 10.979-67.44 3.109-9.068-3.021-18.44-6.143-27.766-7.675-5.076 50.271-7.575 102.027-9.992 152.086-1.502 31.101-3.055 63.26-5.214 94.999zm239.104 96.031c-2.073 0-3.531-.482-4.427-1.461-1.658-1.814-1.072-4.923-.452-8.215.486-2.578.988-5.245.46-7.415l-.016-.066.002-.069c2.081-60.437 3.457-121.926 4.787-181.392 1.404-62.774 2.857-127.687 5.136-190.899l.039-1.083.799.731c41.057 37.615 78.707 70.681 123.691 94.35 39.374 1.998 70.161 2.929 96.884 2.929l.127.017c12.548 3.289 24.012 2.847 35.097 2.415 9.171-.354 18.656-.723 28.872.963 25.442 1.885 42.239.042 53.355-1.178 9.278-1.019 14.391-1.579 16.935 1.032 3.052 3.134 2.027 10.624-.216 27.037-2.263 16.552-5.683 41.565-7.687 80.319-2.375 58.582-3.276 107.284 8.24 156.181l.128.54-.551.07c-81.683 10.459-163.62 14.576-242.86 18.559-38.074 1.913-77.443 3.892-116.751 6.554-.566.055-1.098.082-1.593.082zm-3.431-17.258c.553 2.364.035 5.111-.466 7.769-.572 3.039-1.113 5.909.208 7.354.883.965 2.582 1.313 5.199 1.057 39.331-2.664 78.705-4.643 116.782-6.556 79.042-3.972 160.772-8.079 242.234-18.481-11.413-48.838-10.509-97.465-8.14-155.915 2.007-38.802 5.43-63.841 7.694-80.409 2.198-16.08 3.202-23.42.491-26.203-2.203-2.264-7.143-1.722-16.11-.736-11.151 1.224-28.004 3.072-53.582 1.176-10.16-1.676-19.593-1.311-28.715-.955-11.142.432-22.66.878-35.327-2.432-26.75-.002-57.568-.935-96.98-2.936l-.207-.057c-44.842-23.575-82.371-56.43-123.2-93.817-2.257 62.868-3.7 127.39-5.097 189.805-1.33 59.446-2.705 120.915-4.785 181.337zm209.874-291.567c-24.273 0-48.542-.061-72.577-.223l-.21-.048c-41.779-19.655-81.09-55.577-117.347-91.469l-.959-.949 1.346.095c60.828 4.3 122.197 4.095 181.543 3.895 55.669-.185 113.235-.38 170.449 3.131l.16.01.125.102c36.88 29.984 78.878 57.582 128.395 84.37l1.768.956-2.01-.017c-63.129-.521-127.129-.299-189.021-.086-33.441.115-67.555.233-101.662.233zm-72.46-1.221c57.771.392 116.917.187 174.119-.012 61.242-.211 124.541-.43 187.027.069-48.751-26.488-90.202-53.787-126.661-83.416-57.133-3.5-114.625-3.307-170.225-3.119-58.93.197-119.848.402-180.271-3.803 35.898 35.482 74.773 70.853 116.011 90.28zm-295.878-28.866-.169-.049c-28.165-8.002-56.739-14.969-84.373-21.707-36.902-8.997-75.062-18.301-112.133-30.076l-1.232-.392 29.555-13.569c23.193-10.647 46.275-21.244 69.138-31.776l.161-.074.171.044c43.581 11.101 90.833 16.702 136.528 22.119 36.491 4.326 74.225 8.8 108.86 16.026l1.494.312-1.39.633c-27.922 12.717-56.347 23.46-83.836 33.849-20.616 7.792-41.935 15.849-62.612 24.593l-.162.068zm-195.139-52.394c36.651 11.58 74.357 20.773 110.833 29.667 27.588 6.727 56.113 13.682 84.241 21.669 20.644-8.725 41.914-16.763 62.485-24.538 27.016-10.21 54.937-20.763 82.38-33.189-34.18-7.035-71.331-11.439-107.273-15.701-45.666-5.414-92.889-11.013-136.484-22.1-22.811 10.509-45.839 21.08-68.979 31.702l-27.203 12.49zm452.4-16.596c-71.419 0-160.239-5.179-310.623-30.147l-4.61-.766 4.668-.227c42.788-2.083 85.143-4.744 126.103-7.317 42.807-2.689 87.07-5.47 131.704-7.579l.062-.003.061.012c35.877 7.234 73.337 13.137 109.564 18.845 45.765 7.21 93.087 14.666 136.244 24.73l-.135.987c-45.646-2-82.268-.958-121.04.145-23.114.657-46.447 1.32-71.997 1.32zm-305.845-30.371c200.846 33.083 290.801 30.525 377.814 28.051 37.248-1.06 72.515-2.063 115.711-.368-41.69-9.45-87.015-16.591-130.907-23.507-36.218-5.706-73.667-11.605-109.546-18.84-44.604 2.109-88.845 4.889-131.627 7.576-39.473 2.48-80.238 5.042-121.445 7.088z"/></svg>