<svg width="56" height="117" viewBox="0 0 56 117" fill="none" xmlns="http://www.w3.org/2000/svg">
<path d="M15.78 107.09C6.5 85.76 7.85 64.96 16.76 43.89C16.31 43.25 15.72 42.34 15.04 41.5C7.62 32.21 7.04 23.68 13.23 13.5C16.01 8.91999 19.63 5.06999 24.04 2.01999C25.21 1.20999 26.53 0.459994 27.9 0.129994C30.18 -0.410006 31.24 0.619994 30.72 2.98999C22.66 5.88999 14.19 17.47 13.95 25.94C13.8 31.08 16.2 35.11 19.76 39.01C20.71 38.15 21.46 37.38 22.3 36.74C26.47 33.52 30.53 30.12 34.91 27.21C36.98 25.84 39.63 25.16 42.11 24.64C46.54 23.7 50.41 24.81 53.06 28.8C55.73 32.81 55.77 38.09 53.09 41.98C51.03 44.97 48.27 47.12 44.89 48.44C38.85 50.79 32.72 51.11 26.5 49.19C25.28 48.81 24.06 48.44 22.89 48.09C13.23 60.64 13.94 94.02 21.67 104.81C23.85 100.35 22.74 94.84 26.38 91.2C28.61 91.37 28.77 92.82 28.6 94.33C27.94 100.39 27.32 106.46 26.47 112.49C25.98 115.98 24.3 116.89 21.08 115.57C15.13 113.12 9.16 110.85 2.68 110.14C1.72 110.03 0.89 108.72 0 107.97C0.83 107.14 1.62 105.65 2.48 105.6C5.48 105.44 8.51 105.69 11.51 105.97C12.9 106.1 14.24 106.68 15.78 107.1V107.09ZM25.51 42.59C32.03 46.68 42.48 45.66 47.14 40.75C47.89 39.96 48.53 38.98 48.94 37.97C49.8 35.89 49.32 33.94 48.06 32.11C46.71 30.15 44.76 30.27 42.9 30.75C35.73 32.62 30.35 37.08 25.5 42.59H25.51Z" fill="black"/>
</svg>
