<svg xmlns="http://www.w3.org/2000/svg" viewBox="0 0 400 120" width="400" height="120">
  <!-- Background -->
  <rect width="400" height="120" fill="#F8F2F0" rx="12"/>

  <!-- "Say it messy." text -->
  <text x="20" y="45" font-family="-apple-system, SF Pro Display, Helvetica Neue" font-size="28" font-weight="600" fill="#8E8E93">Say it messy.</text>

  <!-- Messy scribble underline (under "messy" only, ~chars 7-12) -->
  <path d="M128,52 C136,58 140,48 150,55 C160,62 163,47 175,54 C187,61 190,49 200,55 C208,59 212,50 218,54"
        stroke="#8E8E93" stroke-width="2" fill="none" stroke-linecap="round" opacity="0.6"/>
  <path d="M130,56 C140,49 148,58 160,51 C172,44 178,57 190,52 C200,47 208,56 216,52"
        stroke="#8E8E93" stroke-width="1.5" fill="none" stroke-linecap="round" opacity="0.4"/>

  <!-- "Read it clean." text -->
  <text x="20" y="95" font-family="-apple-system, SF Pro Display, Helvetica Neue" font-size="28" font-weight="600" fill="#1C1C1E">Read it clean.</text>

  <!-- Clean swooping arc underline (under "clean") -->
  <path d="M132,104 Q178,90 228,104"
        stroke="#1C1C1E" stroke-width="2.5" fill="none" stroke-linecap="round"/>
</svg>
