<svg height="451" viewBox="0 0 541.752 450.389" width="542" xmlns="http://www.w3.org/2000/svg"><path d="m45.418 4.011c-25.22 0-32.964 5.38-33.628 21.75-.72 17.728-1.335 35.764-1.929 53.206-.578 16.941-1.175 34.458-1.868 51.689-.596 14.814-1.225 76.519-1.892 141.847-.665 65.162-1.352 132.542-2.098 164.256-.06 2.541.885 4.941 2.66 6.759 1.775 1.817 4.152 2.818 6.694 2.819l380.145.051c4.46 0 8.238-3.192 8.982-7.591l1.7-10.051c.23-1.357 1.141-2.501 2.413-3.028s2.725-.363 3.848.434l8.588 6.101c1.107.786 2.219.666 2.783.523.562-.142 1.595-.56 2.195-1.772 51.209-103.49 111.583-227.482 113.437-236.809.601-7.118.819-20.347-4.368-29.638-6.336-11.347-15.358-21.704-24.083-31.719-1.961-2.251-3.918-4.498-5.846-6.754-12.283-14.377-18.944-21.891-24.32-22.114-5.391-.206-12.828 6.883-26.599 20.522-1.644 1.629-3.4 3.06-5.098 4.444-.746.608-1.491 1.215-2.223 1.837-1.255 1.066-3.035 1.255-4.485.476-1.292-.694-2.087-2.031-2.106-3.469-.063-.233-.257-.846-.803-2.085-1.31-2.968-4.005-5.093-7.209-5.684l-45.888-8.456c-1.894-.349-3.271-1.998-3.275-3.924-.072-30.38-1.182-48.463-6.826-57.008-5.091-7.708-14.664-8.959-33.801-9.825-1.093-.05-2.118-.545-2.837-1.37-.718-.826-1.067-1.909-.965-2.999.097-1.038.29-2.219.513-3.585.925-5.67 2.322-14.24-2.262-19.735-3.389-4.062-9.836-6.211-19.161-6.385-33.264-.621-68.171-.696-105.127-.776-51.436-.111-104.623-.226-158.789-1.834-2.274-.067-4.433-.103-6.473-.103z" fill="#fff"/><path d="m536.572 162.608c-7.961-14.258-19.636-26.547-30.38-39.122-26.577-31.108-27.338-30.992-56.774-1.836-2.207 2.185-4.724 4.057-7.097 6.075.075-.623-.438-2.046-1.144-3.646-1.843-4.177-5.654-7.175-10.144-8.003l-45.889-8.456c-.155-65.234-4.999-69.034-44.446-70.819.747-7.98 9.253-33.441-24.818-34.077-79.728-1.487-170.957.149-263.871-2.608-27.207-.808-43.268 2.102-44.216 25.483-1.419 34.959-2.391 69.937-3.797 104.897-1.187 29.473-2.487 242.198-3.992 306.17-.176 7.5 5.851 13.671 13.353 13.672l380.145.051c6.397 0 11.86-4.617 12.927-10.924l1.7-10.051 8.588 6.101c3.699 2.627 8.867 1.331 10.879-2.736 20.162-40.745 113.035-228.85 113.83-238.155.906-10.591.123-23.102-4.854-32.016zm-486.566-93.567c-.015 42.95.309 298.334.409 365.641h-11.09c-7.357 0-13.329-5.947-13.358-13.304-.338-85.972-1.327-333.827-2.714-382.221-.517-18.026 5.708-24.469 24.201-23.9 74.226 2.28 229.187 3.185 268.042 4.493 4.797.161 8.512 4.258 8.192 9.047-.252 3.772-.514 7.315-.514 7.315s-162.752-2.552-237.732-2.858c-29.624-.121-35.425 6.271-35.435 35.788zm39.035 82.246c-1.978 18.324-1.124 223.018-.686 283.395h-5.986c-7.288 0-13.23-5.835-13.356-13.121-1.387-80.361-3.065-301.288-3.41-338.662-.274-29.601 2.088-31.068 31.375-31.094 75.05-.065 150.1.077 225.15.386 46.877.194 48.926 3.139 38.269 51.928-34.242-2.431-67.16-7.021-100.002-6.538-42.468.625-85.015 4.035-127.266 8.646-31.629 3.452-40.611 12.866-44.087 45.06zm30.531 283.395c-7.329 0-13.29-5.904-13.358-13.233-.685-74.676-1.402-263.442 3.173-283.179 1.617-6.976 15.619-14.203 24.877-15.781 64.374-10.975 129.148-12.285 193.976-3.692 28.969 3.84 57.884 8.088 86.761 12.191 4.363.62 7.706 4.195 8.032 8.59.265 3.579.456 6.637.456 6.637l-24.35 26.623c-38.231-4.817-90.173-13.435-128.662-17.783-16.876-1.906-32.7 8.672-37.224 25.042-3.168 11.465-58.628 172.874-79.415 239.298-1.407 4.497-4.456 11.951 2.772 15.287h-37.039zm255.736 0h-195.895c-7.049 0-12.042-6.881-9.842-13.579 22.584-68.769 77.198-234.037 81.094-242.206 1.756-3.682 9.087-7.258 13.393-6.768 38.333 4.363 76.563 9.647 117.598 15.024-7.14 7.215-89.197 105.737-112.171 134.173-2.675 3.311-1.998 8.185 1.473 10.65l120.195 85.38-2.138 7.128c-1.816 6.053-7.387 10.198-13.706 10.198zm45.086-30.391c-2.325 4.594-8.184 6.051-12.392 3.084l-104.979-74.017c-4.086-2.881-4.791-8.66-1.508-12.431 36.723-42.181 136.921-165.175 167.131-198.696 2.767-3.07 7.597-2.959 10.24.219 17.334 20.84 36.332 38.853 45.575 57.856 4.301 8.842-83.204 182.763-104.068 223.986z"/></svg>