<svg height="467.677" viewBox="0 0 545.12 467.677" width="545.12" xmlns="http://www.w3.org/2000/svg"><path d="m489.11 3.999c-.477 0-.97.013-1.482.037-15.149.733-30.559 1.825-45.461 2.881l-7.352.52c-20.876 1.467-43.753 3.137-69.938 5.106l-12.663.949c-20.04 1.498-40.763 3.048-61.118 4.769-13.009 1.101-26.235 2.314-39.025 3.489-16.45 1.511-33.46 3.072-50.218 4.41-8.847.706-17.831 1.134-26.521 1.547-9.171.436-18.655.887-27.918 1.666-32.765 2.753-62.89 5.628-92.096 8.787-12.92 1.398-26.708 3.58-43.391 6.864-2.042.401-8.643 2.213-7.861 8.646 1.426 11.731 3.593 23.635 5.688 35.146l.948 5.219c1.26 6.976 2.637 14.065 3.97 20.922 2.215 11.402 4.506 23.193 6.342 34.893 2.131 13.569 3.474 27.435 4.772 40.843l.486 4.995c.49 5.021.985 10.04 1.481 15.061 2.398 24.296 4.878 49.419 6.739 74.196.951 12.636 1.352 25.479 1.738 37.901.234 7.512.477 15.279.837 22.895.351 7.391.887 14.921 1.404 22.203.351 4.915.712 9.999 1.016 15.012.343 5.669.696 11.338 1.051 17.007 1.13 18.098 2.299 36.811 3.069 55.252.096 2.269.293 6.988 1.202 7.814.446.406 2.052.828 7.171.557 21.79-1.171 43.943-2.586 65.367-3.954 6.209-.396 12.419-.793 18.629-1.185 15.82-.997 31.639-2.014 47.458-3.029 29.081-1.868 59.153-3.8 88.742-5.576 21.164-1.27 42.685-2.467 63.496-3.624 26.652-1.482 54.211-3.016 81.297-4.717 21.327-1.339 43.008-2.903 63.975-4.416 18.512-1.335 37.652-2.716 56.495-3.938 2.592-.168 3.219-.759 3.318-.876.124-.145.511-.792.299-3.032-.205-2.171-.465-4.399-.792-6.813-2.303-17.039-4.629-34.074-6.954-51.109-4.973-36.419-10.114-74.078-14.938-111.153-7.325-56.302-16.035-130.604-18.384-206.059 0-.041-.002-.083-.002-.124 0-3.86.014-7.722.027-11.582.03-8.703.062-17.702-.071-26.532-.069-4.682-1.019-7.817-2.901-9.584-1.633-1.532-4.237-2.284-7.933-2.284z" fill="#fff"/><path d="m503.989 53.982c2.144 68.889 9.464 137.357 18.352 205.667 7.041 54.113 14.58 108.162 21.89 162.241.313 2.319.59 4.644.81 6.973.507 5.362-1.357 7.888-7.341 8.276-40.171 2.605-80.302 5.831-120.477 8.354-48.253 3.03-96.544 5.446-144.805 8.342-45.405 2.725-90.792 5.743-136.188 8.604-28.008 1.765-56.01 3.634-84.032 5.141-11.151.599-12.132-1.366-12.584-12.199-1.007-24.077-2.662-48.127-4.117-72.184-.751-12.426-1.833-24.834-2.423-37.266-.958-20.225-1.051-40.507-2.568-60.686-2.237-29.76-5.31-59.46-8.214-89.167-1.489-15.23-2.857-30.503-5.228-45.607-2.928-18.653-6.94-37.134-10.297-55.723-2.439-13.496-5.018-26.993-6.671-40.594-.896-7.373 4.629-11.788 11.06-13.054 14.474-2.849 29.072-5.329 43.732-6.915 30.689-3.321 61.43-6.212 92.19-8.797 18.114-1.523 36.333-1.767 54.455-3.214 29.762-2.376 59.473-5.382 89.225-7.897 24.591-2.079 49.207-3.87 73.818-5.722 23.316-1.754 46.634-3.469 69.958-5.108 17.627-1.238 35.253-2.551 52.9-3.406 11.337-.549 16.34 4.409 16.51 15.767.19 12.722.044 25.449.044 38.174zm-486.723 2.018c17.127 132.101 34.023 262.416 50.953 392.996 150.16-15.819 301.668-22.506 453.49-30.863-19.997-132.091-38.122-263.722-38.419-397.587-22.298 1.089-43.837 1.93-65.349 3.232-54.224 3.284-108.436 6.764-162.651 10.189-29.819 1.884-59.654 3.565-89.448 5.794-31.318 2.342-62.642 4.792-93.875 8.043-18.664 1.943-37.159 5.514-54.702 8.196z"/><path d="m205.889 183.095c5.906-7.633 10.958-14.827 16.693-21.427 9.481-10.91 20.17-20.268 34.761-23.927 14.286-3.582 27.199 1.299 40.033 6.377 13.052 5.165 12.919 5.235 22.805-4.923 10.811-11.108 22.552-20.099 39.575-17.516 11.198 1.699 18.823 8.449 25.035 17.066 5.399 7.49 10.184 15.423 15.67 23.818 3.306-4.82 5.852-8.963 8.824-12.773 5.699-7.306 13.357-11.25 22.511-9.351 3.699.768 9.275 3.316 9.534 7.414.148 2.337-3.266 6.582-5.674 9.571-3.972 4.93-8.77 9.229-12.452 14.346-3.152 4.382-4.741 9.884-7.878 14.281-6.494 9.104-17.913 10.241-25.609 2.132-4.937-5.202-8.502-11.72-12.59-17.71-4.679-6.856-8.923-14.038-13.981-20.597-4.29-5.562-10.329-6.406-15.824-1.918-8.307 6.784-17.646 12.797-16.619 26.157.594 7.73-5.737 13.411-12.965 14.036-7.59.656-13.261-4.098-15.396-12.409-.594-2.311-3.464-6.227-9.381-8.624-9.797-3.969-13.886-5.888-24.179-7.698-5.017-.882-12.316 1.944-16.183 5.617-9.521 9.046-17.737 19.484-26.298 29.514-2.856 3.346-4.887 7.401-7.786 10.702-8.308 9.461-20.213 9.009-26.854-1.629-4.642-7.435-7.646-15.877-11.613-23.754-6.068-12.05-11.425-24.591-18.745-35.843-9.46-14.541-17.482-14.662-29.059-1.762-13.47 15.01-18.677 29.327-25.274 47.96-1.449 4.093-4.587 16.496-7.03 16.141-3.95-.574-2.964-13.35-1.24-19.083 4.912-16.333 10.195-34.501 18.553-50.011 16.481-30.584 43.117-31.488 62.88-2.783 8.182 11.884 13.86 25.495 20.641 38.34 1.671 3.167 3.2 6.409 5.115 10.263z"/><path d="m351.969 326.997c-27.772 10.29-53.45 7.745-76.224-12.582-6.96-6.212-6.661-5.826-11.929 1.76-6.026 8.676-11.735 18.082-19.565 24.887-15.528 13.495-32.322 10.738-44.883-5.524-1.252-1.621-2.732-3.157-4.375-4.37-7.823-5.778-42.005-12.671-53.728-8.318 10.494 9.609 22.38 32.073 22.358 35.515-.023 3.442-4.244-.834-4.978-1.389-10.499-7.929-20.963-15.905-31.402-23.913-5.649-4.333-9.925-9.565-8.134-17.217 1.798-7.687 8.128-10.94 15.007-11.741 23.808-2.772 46.605 1.294 67.84 12.494 3.926 2.071 7.217 5.915 9.942 9.579 6.022 8.096 12.378 9.816 20.228 3.345 5.108-4.21 9.212-9.773 13.223-15.137 3.248-4.343 5.479-9.431 8.524-13.944 6.726-9.971 15.752-11.55 25.406-4.46 3.758 2.76 7.146 6.023 10.738 9.014 13.53 11.269 28.992 15.481 46.465 13.25 6.671-.852 13.476-.776 20.222-.835 2.099-.018 5.021.309 6.308 1.404 1.287 1.094-7.106 6.723-11.043 8.181z"/></svg>