<svg height="418.671" viewBox="0 0 468.518 418.671" width="468.518" xmlns="http://www.w3.org/2000/svg"><path d="m289.679 4.003c-7.761 0-15.507.146-23.189.515-31.874 1.53-64.264 4.093-95.588 6.572-15.771 1.248-32.081 2.538-48.136 3.682-14.976 1.067-30.202 2.051-44.928 3.001-18.643 1.204-37.921 2.449-56.855 3.875-13.898 1.047-17.229 4.701-16.972 18.617.314 16.965.784 36.967 1.889 56.695l.021.388c1.448 25.854 2.945 52.589 5.458 78.745 4.527 47.128 9.208 95.861 15.418 144.82 2.373 18.702 5.961 37.631 9.432 55.937 1.986 10.479 4.04 21.313 5.852 32.021.548 3.242 1.754 4.313 5.376 4.774 4.1.522 8.476 1.009 12.702 1.023.337 0 .697.002 1.077.002 27.001 0 157.923-3.211 199.014-5.341 50.545-2.62 99.789-10.857 137.044-17.741l4.721-.866c20.159-3.686 39.2-7.167 56.885-16.485 1.559-.821 4.678-2.465 5.562-3.36-.267-.828-1.369-2.566-3.287-5.177-10.579-14.402-19-30.663-25.744-49.711-17.903-50.562-33.095-105.327-49.257-177.574-1.039-4.643-2.104-9.284-3.168-13.926-7.98-34.791-16.231-70.766-13.343-108.003.174-2.235-1.29-6.421-3.025-7.639-2.812-1.974-8.744-2.996-13.378-3.133-6.344-.187-12.691-.416-19.041-.645-14.642-.527-29.614-1.067-44.538-1.067z" fill="#fff"/><path d="m60.144 418.669c-4.401-.017-8.82-.499-13.194-1.056-4.718-.602-7.873-2.507-8.814-8.075-4.972-29.4-11.559-58.578-15.306-88.121-6.113-48.192-10.786-96.576-15.432-144.94-2.533-26.364-4.011-52.84-5.492-79.292-1.06-18.926-1.543-37.891-1.894-56.845-.294-15.878 4.604-21.47 20.671-22.679 33.913-2.554 67.875-4.46 101.799-6.878 47.941-3.416 95.823-7.955 143.815-10.26 28.946-1.39 58.057.338 87.079 1.194 4.666.138 11.696 1.145 15.558 3.857 3.137 2.203 4.97 7.941 4.716 11.222-3.219 41.485 7.538 81.025 16.425 120.746 13.388 59.844 28.619 119.2 49.124 177.111 6.197 17.5 14.215 33.725 25.198 48.678 6.284 8.555 5.616 9.57-3.634 14.444-19.665 10.361-41.262 13.777-62.743 17.746-45.538 8.415-91.249 15.402-137.563 17.803-41.017 2.126-174.573 5.442-200.313 5.344zm376.198-50.048c-8.562-16.85-17.574-31.783-23.993-47.759-17.597-43.791-28.497-89.596-37.558-135.783-10.265-52.32-19.824-104.797-16.583-158.543.287-4.75-1.201-6.043-5.696-6.997-26.906-5.714-53.905-3.222-80.798-.904-83.741 7.22-167.556 12.012-251.655 10.106-3.527-.08-7.066.372-12.766.701 0 9.686.791 22.164 1.666 30.965 2.384 23.999 3.835 44.424 6.738 68.369 4.032 33.258 7.978 66.529 12.389 99.738 5.509 41.477 11.439 82.898 17.213 124.339 2.396 17.194 4.858 34.379 7.297 51.622 8.16 0 15.686.239 23.194-.038 55.616-2.054 111.238-3.984 166.839-6.399 56.75-2.465 113.036-8.685 168.216-22.863 8.69-2.233 17.379-4.467 25.498-6.554z"/><path d="m88.327 190.301c-3.063-3.579-4.889-11.365-6.023-17.297-2.997-15.681-3.685-31.464 1.265-46.995 2.42-7.594 6.604-13.832 14.994-15.3 8.708-1.523 15.51 2.684 19.681 9.814 4.291 7.334 14.095 35.375 14.095 35.375s12.506-33.3 16.864-39.325c8.144-11.26 21.302-10.614 27.879 1.636 4.749 8.844 7.451 18.775 11.222 28.159 3.138 7.81 6.504 15.529 10.708 25.523 3.465-5.092 17.234-31.967 22.316-42.494 7.965-16.498 20.827-24.227 39.476-23.385 8.415.38 16.944-1.753 25.42-2.757 7.028-.832 14.388-2.216 18.794 5.364 2.62 4.509-1.377 13.382-8.076 18.846-10.181 8.305-21.976 12.15-34.91 10.083-9.998-1.598-15.726 2.151-19.495 10.976-2.649 6.203-5.854 12.181-9.037 18.14-2.567 4.807-5.159 9.653-8.277 14.106-16.135 23.041-37.616 21.47-49.921-3.924-4.167-8.599-6.791-17.949-10.065-26.976-1.21-3.336-2.257-6.732-4.153-12.426-2.24 4.397-3.633 6.673-4.608 9.116-10.06 25.231-18.394 50.863-17.75 78.519.03 1.297-.004 2.608-.151 3.896-.907 7.954-5.823 13.107-12.099 12.737-6.58-.388-10.755-5.48-10.553-13.857.657-27.316-3.926-53.833-11.681-79.899-.517-1.738-1.123-3.458-1.825-5.129-.382-.909-1.055-1.697-2.334-3.685-8.272 16.544-5.83 58.083-11.758 51.158z"/></svg>